<?xml version="1.0" encoding="utf-8"?>
<!-- Generator: Adobe Illustrator 25.0.0, SVG Export Plug-In . SVG Version: 6.00 Build 0)  -->
<svg version="1.1" id="Capa_1" xmlns="http://www.w3.org/2000/svg" xmlns:xlink="http://www.w3.org/1999/xlink" x="0px" y="0px"
	 viewBox="0 0 128 128" style="enable-background:new 0 0 128 128;" xml:space="preserve">
<style type="text/css">
	.st0{fill-rule:evenodd;clip-rule:evenodd;fill:#00979C;}
</style>
<g>
	<path class="st0" d="M6.8,69.2v-8.6C7,60.5,7,60.3,7,60.1C9.7,48.3,17,41.2,28.7,38.4c1-0.3,2.1-0.2,3.1-0.5h5.8
		c0.1,0.2,0.4,0.1,0.5,0.1c5.8,0.6,11,2.7,15.6,6.3c4,3,7,6.8,9.8,10.8c0.4,0.5,0.5,0.5,0.9,0c1.6-2.3,3.3-4.6,5.3-6.7
		c4.8-5.1,10.5-8.7,17.6-10c1-0.3,2.2-0.2,3.2-0.5H96c0.1,0.2,0.3,0.1,0.4,0.1c1.7,0.2,3.3,0.5,5,1c12.1,3.5,20.6,14.6,19.9,27.1
		c-0.5,10.5-5.9,18.1-15.1,22.9c-4.6,2.5-9.6,3.2-14.9,3.1c-6.8-0.1-12.8-2.4-17.9-6.9c-3.6-3.2-6.4-6.9-9-10.9
		c-0.4-0.5-0.5-0.4-0.9,0.1c-1.6,2.4-3.3,4.9-5.3,7.2c-3.5,4-7.6,7.2-12.6,8.9c-6.2,2.2-12.5,2.2-18.8,0.5
		C17.7,88.3,11.5,82.5,8,73.7C7.5,72.3,7.2,70.7,6.8,69.2z M35.4,82.4c5.1,0.2,9.5-1.5,13.3-5c3.9-3.6,6.7-8.1,9.5-12.5
		c0.1-0.3,0.1-0.4-0.1-0.7c-2.3-3.7-4.8-7.4-8-10.4c-6.2-5.9-13.5-7.9-21.7-5.3c-6.8,2.2-11.1,7-12.1,14.2c-1,6.8,1.6,12.2,7,16.2
		C26.9,81.5,31,82.5,35.4,82.4z M92.5,82.4c2,0,4-0.1,5.8-0.6c7.1-2.2,11.8-6.6,13.1-13.9c1.3-7.3-1.4-13.1-7.6-17.3
		c-6.8-4.7-16.6-4.2-23.4,0.9c-4.6,3.4-7.7,8-10.7,12.8c-0.2,0.3-0.1,0.5,0,0.7c2.4,3.9,4.9,7.7,8,11.1
		C81.8,80.3,86.5,82.7,92.5,82.4z M6.5,9.4"/>
</g>
</svg>
